<svg xmlns="http://www.w3.org/2000/svg" viewBox="0 0 99.67 116.88"><defs><style>.cls-1{fill:#2e97d1;}</style></defs><title>mymizu Primary logo</title><g id="Layer_2" data-name="Layer 2"><g id="TEMPLATE"><g id="_03_Logo" data-name="03 Logo"><path class="cls-1" d="M0,109.65V95.28H2v2.26a4.9,4.9,0,0,1,4.58-2.79A4.41,4.41,0,0,1,11,97.57a5.52,5.52,0,0,1,5-2.82c3.06,0,4.92,2,4.92,5.18v9.72h-2v-8.93c0-2.82-1.17-4.25-3.46-4.25-2.85,0-4,1.89-4,5.61v7.57h-2v-8.93c0-2.82-1-4.25-3.39-4.25C3.19,96.47,2,98.36,2,102.08v7.57Z"/><path class="cls-1" d="M26.93,95.28l4.12,11.25,3.78-11.25H37l-7.43,21.6H27.46L30,109.55,24.81,95.28Z"/><path class="cls-1" d="M62.13,109.67H59v-8.88c0-3-1.46-3.29-2.56-3.29-2.16,0-3,1.32-3,4.55v7.62h-3.1v-8.88c0-2.73-1-3.29-2.5-3.29s-3.14.54-3.14,4.55v7.62H41.6V95.14h3.09V96a5.2,5.2,0,0,1,3.6-1.33,4.67,4.67,0,0,1,4.12,2,5.66,5.66,0,0,1,4.55-2c3.14,0,5.17,2.12,5.17,5.41Z"/><path class="cls-1" d="M69.28,109.67H66.12V95.14h3.16Z"/><path class="cls-1" d="M93.44,110.25c-4,0-6.27-2.46-6.27-6.91v-8.2h3.1v7.25c0,4.1,1.1,4.88,3.14,4.88,2.37,0,3.17-1.23,3.17-4.88V95.14h3.09v8.2C99.67,107.79,97.46,110.25,93.44,110.25Z"/><path class="cls-1" d="M84.23,109.67H71.63l7.42-11.62H72.67V95.14H84.53l-7.36,11.64h7.06Z"/><path class="cls-1" d="M72.33,42a160.51,160.51,0,0,0-8.65-14.84C58.47,18.91,52.74,9.81,49.52,0c-3.22,9.81-9,18.91-14.16,27.19A160.51,160.51,0,0,0,26.71,42C24.25,47.14,23.1,51.24,23.1,55A26.41,26.41,0,0,0,49.52,81.41h0c-1.88-5.73-5.23-11.06-8.28-15.9a94.38,94.38,0,0,1-5.05-8.67,17.53,17.53,0,0,1-2.11-7.56,15.22,15.22,0,0,1,1.21-6A15.47,15.47,0,0,1,43.51,35,15.46,15.46,0,0,1,65,49.28a17.42,17.42,0,0,1-2.12,7.56,94.38,94.38,0,0,1-5.05,8.67c-3,4.84-6.39,10.17-8.28,15.9a26.24,26.24,0,0,0,10.29-2.08A26.51,26.51,0,0,0,73.87,65.25,26.21,26.21,0,0,0,76,55C76,51.24,74.8,47.14,72.33,42Z"/><circle class="cls-1" cx="49.53" cy="49.28" r="7" transform="translate(-6.87 8.04) rotate(-8.68)"/></g></g></g></svg>