<svg xmlns="http://www.w3.org/2000/svg" viewBox="0 0 169.68 58.44"><defs><style>.cls-1{fill:#2e97d1;}</style></defs><title>mymizu Long logo</title><g id="Layer_2" data-name="Layer 2"><g id="TEMPLATE"><path class="cls-1" d="M35.34,30.18a113.45,113.45,0,0,0-6.2-10.66C25.4,13.58,21.28,7,19,0,16.66,7,12.54,13.58,8.8,19.52A113.45,113.45,0,0,0,2.6,30.18C.82,33.84,0,36.79,0,39.46a18.79,18.79,0,0,0,1.49,7.38A19.07,19.07,0,0,0,11.59,57,18.79,18.79,0,0,0,19,58.44h0C17.62,54.33,15.21,50.51,13,47A63.93,63.93,0,0,1,9.4,40.8a12.51,12.51,0,0,1-1.52-5.42,11.13,11.13,0,0,1,6.77-10.23,11.16,11.16,0,0,1,8.64,0,11.17,11.17,0,0,1,5.9,5.91,11.19,11.19,0,0,1,.87,4.32,12.51,12.51,0,0,1-1.52,5.42A63.93,63.93,0,0,1,24.91,47c-2.18,3.48-4.59,7.3-5.94,11.41A18.79,18.79,0,0,0,26.35,57a19.07,19.07,0,0,0,10.1-10.11,18.79,18.79,0,0,0,1.49-7.38C37.94,36.79,37.11,33.84,35.34,30.18Z"/><circle class="cls-1" cx="18.98" cy="35.38" r="5.03" transform="translate(-5.12 3.27) rotate(-8.68)"/><path class="cls-1" d="M50.25,47.39V30.17h2.38v2.7a5.9,5.9,0,0,1,5.49-3.34,5.3,5.3,0,0,1,5.25,3.38,6.63,6.63,0,0,1,6-3.38c3.66,0,5.88,2.39,5.88,6.21V47.39H72.88V36.69c0-3.38-1.39-5.09-4.14-5.09-3.42,0-4.77,2.27-4.77,6.72v9.07H61.58V36.69c0-3.38-1.15-5.09-4-5.09-3.46,0-4.9,2.27-4.9,6.72v9.07Z"/><path class="cls-1" d="M82.52,30.17l4.93,13.48L92,30.17h2.55L85.62,56.06H83.15l3-8.79L80,30.17Z"/><path class="cls-1" d="M124.69,47.41H121V36.78c0-3.54-1.75-4-3.06-4-2.6,0-3.65,1.58-3.65,5.45v9.13h-3.72V36.78c0-3.28-1.19-4-3-4s-3.76.65-3.76,5.45v9.13h-3.71V30h3.71v1a6.23,6.23,0,0,1,4.31-1.59,5.63,5.63,0,0,1,4.94,2.45,6.79,6.79,0,0,1,5.45-2.45c3.76,0,6.19,2.54,6.19,6.48Z"/><path class="cls-1" d="M133.26,47.41h-3.79V30h3.79Z"/><path class="cls-1" d="M162.21,48.11c-4.85,0-7.51-2.94-7.51-8.29V30h3.71v8.69c0,4.92,1.32,5.85,3.76,5.85,2.84,0,3.8-1.48,3.8-5.85V30h3.71v9.82C169.68,45.17,167,48.11,162.21,48.11Z"/><path class="cls-1" d="M151.17,47.41H136.08L145,33.49h-7.64V30h14.2l-8.81,14h8.45Z"/></g></g></svg>